<mxfile host="Electron" agent="Mozilla/5.0 (Windows NT 10.0; Win64; x64) AppleWebKit/537.36 (KHTML, like Gecko) draw.io/24.7.8 Chrome/128.0.6613.36 Electron/32.0.1 Safari/537.36" version="24.7.8">
  <diagram name="Page-1" id="MAllqAfLBLea2LckqZOi">
    <mxGraphModel dx="1434" dy="844" grid="1" gridSize="10" guides="1" tooltips="1" connect="1" arrows="1" fold="1" page="1" pageScale="1" pageWidth="850" pageHeight="1100" math="0" shadow="0">
      <root>
        <mxCell id="0" />
        <mxCell id="1" parent="0" />
        <mxCell id="USOqtzKKuF3D1rq9zsue-13" value="User" style="shape=umlActor;verticalLabelPosition=bottom;verticalAlign=top;html=1;outlineConnect=0;" parent="1" vertex="1">
          <mxGeometry x="561" y="360" width="30" height="60" as="geometry" />
        </mxCell>
        <mxCell id="h80tLXjlkXriCEG6QZvb-1" value="&lt;font style=&quot;font-size: 16px;&quot;&gt;&lt;b&gt;&lt;u&gt;Facility Diagram&lt;/u&gt;&amp;nbsp;(&lt;font color=&quot;#990000&quot;&gt;Input&lt;/font&gt;)&lt;/b&gt;&lt;/font&gt;" style="text;html=1;align=center;verticalAlign=middle;whiteSpace=wrap;rounded=0;" parent="1" vertex="1">
          <mxGeometry x="43" y="50" width="187" height="20" as="geometry" />
        </mxCell>
        <mxCell id="h80tLXjlkXriCEG6QZvb-2" value="ESP32 #1" style="rounded=0;whiteSpace=wrap;html=1;" parent="1" vertex="1">
          <mxGeometry x="325" y="130" width="60" height="30" as="geometry" />
        </mxCell>
        <mxCell id="h80tLXjlkXriCEG6QZvb-3" value="ESP32 #2" style="rounded=0;whiteSpace=wrap;html=1;" parent="1" vertex="1">
          <mxGeometry x="325" y="190" width="60" height="30" as="geometry" />
        </mxCell>
        <mxCell id="h80tLXjlkXriCEG6QZvb-5" value="ESP32 #n" style="rounded=0;whiteSpace=wrap;html=1;" parent="1" vertex="1">
          <mxGeometry x="325" y="250" width="60" height="30" as="geometry" />
        </mxCell>
        <mxCell id="h80tLXjlkXriCEG6QZvb-13" value="&lt;b&gt;&lt;font style=&quot;font-size: 12px;&quot;&gt;Digital Pin&lt;/font&gt;&lt;/b&gt;" style="edgeStyle=orthogonalEdgeStyle;rounded=0;orthogonalLoop=1;jettySize=auto;html=1;entryX=0;entryY=0.5;entryDx=0;entryDy=0;" parent="1" source="h80tLXjlkXriCEG6QZvb-6" target="h80tLXjlkXriCEG6QZvb-2" edge="1">
          <mxGeometry relative="1" as="geometry" />
        </mxCell>
        <mxCell id="h80tLXjlkXriCEG6QZvb-6" value="DHT11/DHT22 Sensor" style="rounded=0;whiteSpace=wrap;html=1;" parent="1" vertex="1">
          <mxGeometry x="45" y="130" width="150" height="30" as="geometry" />
        </mxCell>
        <mxCell id="h80tLXjlkXriCEG6QZvb-14" value="&lt;b&gt;&lt;font style=&quot;font-size: 12px;&quot;&gt;Digital Pin&lt;/font&gt;&lt;/b&gt;" style="edgeStyle=orthogonalEdgeStyle;rounded=0;orthogonalLoop=1;jettySize=auto;html=1;entryX=0;entryY=0.5;entryDx=0;entryDy=0;" parent="1" source="h80tLXjlkXriCEG6QZvb-7" target="h80tLXjlkXriCEG6QZvb-3" edge="1">
          <mxGeometry relative="1" as="geometry" />
        </mxCell>
        <mxCell id="h80tLXjlkXriCEG6QZvb-7" value="DHT11/DHT22 Sensor" style="rounded=0;whiteSpace=wrap;html=1;" parent="1" vertex="1">
          <mxGeometry x="45" y="190" width="150" height="30" as="geometry" />
        </mxCell>
        <mxCell id="h80tLXjlkXriCEG6QZvb-15" value="&lt;b&gt;&lt;font style=&quot;font-size: 12px;&quot;&gt;Digital Pin&lt;/font&gt;&lt;/b&gt;" style="edgeStyle=orthogonalEdgeStyle;rounded=0;orthogonalLoop=1;jettySize=auto;html=1;" parent="1" source="h80tLXjlkXriCEG6QZvb-8" target="h80tLXjlkXriCEG6QZvb-5" edge="1">
          <mxGeometry relative="1" as="geometry" />
        </mxCell>
        <mxCell id="h80tLXjlkXriCEG6QZvb-8" value="DHT11/DHT22 Sensor" style="rounded=0;whiteSpace=wrap;html=1;" parent="1" vertex="1">
          <mxGeometry x="45" y="250" width="150" height="30" as="geometry" />
        </mxCell>
        <mxCell id="h80tLXjlkXriCEG6QZvb-18" value="&lt;b&gt;&lt;font style=&quot;font-size: 12px;&quot;&gt;A&lt;/font&gt;&lt;/b&gt;" style="endArrow=classic;startArrow=classic;html=1;rounded=0;exitX=1;exitY=0.5;exitDx=0;exitDy=0;entryX=0;entryY=0.5;entryDx=0;entryDy=0;" parent="1" source="h80tLXjlkXriCEG6QZvb-3" target="h80tLXjlkXriCEG6QZvb-22" edge="1">
          <mxGeometry width="50" height="50" relative="1" as="geometry">
            <mxPoint x="515" y="330" as="sourcePoint" />
            <mxPoint x="485" y="185" as="targetPoint" />
          </mxGeometry>
        </mxCell>
        <mxCell id="h80tLXjlkXriCEG6QZvb-20" value="&lt;b&gt;&lt;font style=&quot;font-size: 12px;&quot;&gt;A&lt;/font&gt;&lt;/b&gt;" style="endArrow=classic;startArrow=classic;html=1;rounded=0;exitX=1;exitY=0.5;exitDx=0;exitDy=0;entryX=0;entryY=1;entryDx=0;entryDy=0;" parent="1" source="h80tLXjlkXriCEG6QZvb-5" target="h80tLXjlkXriCEG6QZvb-22" edge="1">
          <mxGeometry width="50" height="50" relative="1" as="geometry">
            <mxPoint x="455" y="310" as="sourcePoint" />
            <mxPoint x="496.71572875253787" y="213.28427124746213" as="targetPoint" />
          </mxGeometry>
        </mxCell>
        <mxCell id="h80tLXjlkXriCEG6QZvb-21" value="&lt;b&gt;&lt;font style=&quot;font-size: 12px;&quot;&gt;A&lt;/font&gt;&lt;/b&gt;" style="endArrow=classic;startArrow=classic;html=1;rounded=0;exitX=1;exitY=0.5;exitDx=0;exitDy=0;entryX=0;entryY=0;entryDx=0;entryDy=0;" parent="1" source="h80tLXjlkXriCEG6QZvb-2" target="h80tLXjlkXriCEG6QZvb-22" edge="1">
          <mxGeometry width="50" height="50" relative="1" as="geometry">
            <mxPoint x="445" y="150" as="sourcePoint" />
            <mxPoint x="496.71572875253787" y="156.71572875253787" as="targetPoint" />
          </mxGeometry>
        </mxCell>
        <mxCell id="h80tLXjlkXriCEG6QZvb-58" value="&lt;b&gt;&lt;font style=&quot;font-size: 12px;&quot;&gt;C&lt;/font&gt;&lt;/b&gt;" style="edgeStyle=orthogonalEdgeStyle;rounded=0;orthogonalLoop=1;jettySize=auto;html=1;entryX=0;entryY=0.5;entryDx=0;entryDy=0;" parent="1" source="h80tLXjlkXriCEG6QZvb-22" target="h80tLXjlkXriCEG6QZvb-24" edge="1">
          <mxGeometry relative="1" as="geometry" />
        </mxCell>
        <mxCell id="h80tLXjlkXriCEG6QZvb-22" value="RabbitMQ Broker" style="ellipse;whiteSpace=wrap;html=1;" parent="1" vertex="1">
          <mxGeometry x="485" y="165" width="120" height="80" as="geometry" />
        </mxCell>
        <mxCell id="h80tLXjlkXriCEG6QZvb-23" value="" style="endArrow=none;dashed=1;html=1;rounded=0;" parent="1" edge="1">
          <mxGeometry width="50" height="50" relative="1" as="geometry">
            <mxPoint x="355" y="240" as="sourcePoint" />
            <mxPoint x="355" y="230" as="targetPoint" />
          </mxGeometry>
        </mxCell>
        <mxCell id="h80tLXjlkXriCEG6QZvb-24" value="Broadway App" style="rounded=0;whiteSpace=wrap;html=1;" parent="1" vertex="1">
          <mxGeometry x="685" y="175" width="120" height="60" as="geometry" />
        </mxCell>
        <mxCell id="h80tLXjlkXriCEG6QZvb-26" value="" style="ellipse;whiteSpace=wrap;html=1;aspect=fixed;" parent="1" vertex="1">
          <mxGeometry x="735" y="300" width="20" height="20" as="geometry" />
        </mxCell>
        <mxCell id="h80tLXjlkXriCEG6QZvb-29" value="&lt;b&gt;&lt;font style=&quot;font-size: 12px;&quot;&gt;B&lt;/font&gt;&lt;/b&gt;" style="edgeStyle=orthogonalEdgeStyle;rounded=0;orthogonalLoop=1;jettySize=auto;html=1;entryX=0.5;entryY=0;entryDx=0;entryDy=0;spacingLeft=52;" parent="1" source="h80tLXjlkXriCEG6QZvb-28" target="h80tLXjlkXriCEG6QZvb-22" edge="1">
          <mxGeometry x="0.0051" relative="1" as="geometry">
            <mxPoint as="offset" />
          </mxGeometry>
        </mxCell>
        <mxCell id="h80tLXjlkXriCEG6QZvb-28" value="Pulse Chron Job" style="rounded=0;whiteSpace=wrap;html=1;" parent="1" vertex="1">
          <mxGeometry x="685" y="80" width="120" height="60" as="geometry" />
        </mxCell>
        <mxCell id="h80tLXjlkXriCEG6QZvb-30" value="&lt;font style=&quot;font-size: 16px;&quot;&gt;&lt;b&gt;&lt;u&gt;API Diagram&lt;/u&gt;&amp;nbsp;(&lt;font color=&quot;#990000&quot;&gt;Output&lt;/font&gt;)&lt;/b&gt;&lt;/font&gt;" style="text;html=1;align=center;verticalAlign=middle;whiteSpace=wrap;rounded=0;" parent="1" vertex="1">
          <mxGeometry x="43" y="330" width="169" height="20" as="geometry" />
        </mxCell>
        <mxCell id="h80tLXjlkXriCEG6QZvb-31" value="" style="ellipse;whiteSpace=wrap;html=1;aspect=fixed;" parent="1" vertex="1">
          <mxGeometry x="260" y="380" width="20" height="20" as="geometry" />
        </mxCell>
        <mxCell id="h80tLXjlkXriCEG6QZvb-32" value="Phoenix REST API" style="rounded=0;whiteSpace=wrap;html=1;" parent="1" vertex="1">
          <mxGeometry x="356" y="360" width="120" height="60" as="geometry" />
        </mxCell>
        <mxCell id="h80tLXjlkXriCEG6QZvb-35" value="&lt;b&gt;&lt;font style=&quot;font-size: 12px;&quot;&gt;D&lt;/font&gt;&lt;/b&gt;" style="endArrow=classic;startArrow=classic;html=1;rounded=0;entryX=0.5;entryY=1;entryDx=0;entryDy=0;exitX=0.5;exitY=0;exitDx=0;exitDy=0;" parent="1" source="h80tLXjlkXriCEG6QZvb-26" target="h80tLXjlkXriCEG6QZvb-24" edge="1">
          <mxGeometry width="50" height="50" relative="1" as="geometry">
            <mxPoint x="655" y="380" as="sourcePoint" />
            <mxPoint x="705" y="330" as="targetPoint" />
          </mxGeometry>
        </mxCell>
        <mxCell id="h80tLXjlkXriCEG6QZvb-36" value="Redis Cache" style="ellipse;whiteSpace=wrap;html=1;" parent="1" vertex="1">
          <mxGeometry x="356" y="480" width="120" height="80" as="geometry" />
        </mxCell>
        <mxCell id="h80tLXjlkXriCEG6QZvb-37" value="&lt;b&gt;&lt;font style=&quot;font-size: 12px;&quot;&gt;A&lt;/font&gt;&lt;/b&gt;" style="endArrow=classic;startArrow=classic;html=1;rounded=0;entryX=0;entryY=0.5;entryDx=0;entryDy=0;exitX=1;exitY=0.5;exitDx=0;exitDy=0;" parent="1" source="h80tLXjlkXriCEG6QZvb-31" target="h80tLXjlkXriCEG6QZvb-32" edge="1">
          <mxGeometry width="50" height="50" relative="1" as="geometry">
            <mxPoint x="286" y="520" as="sourcePoint" />
            <mxPoint x="336" y="470" as="targetPoint" />
          </mxGeometry>
        </mxCell>
        <mxCell id="h80tLXjlkXriCEG6QZvb-38" value="&lt;b&gt;&lt;font style=&quot;font-size: 12px;&quot;&gt;B&lt;/font&gt;&lt;/b&gt;" style="endArrow=classic;startArrow=classic;html=1;rounded=0;entryX=0.5;entryY=1;entryDx=0;entryDy=0;exitX=0.5;exitY=0;exitDx=0;exitDy=0;" parent="1" source="h80tLXjlkXriCEG6QZvb-36" target="h80tLXjlkXriCEG6QZvb-32" edge="1">
          <mxGeometry width="50" height="50" relative="1" as="geometry">
            <mxPoint x="276" y="530" as="sourcePoint" />
            <mxPoint x="326" y="480" as="targetPoint" />
          </mxGeometry>
        </mxCell>
        <mxCell id="h80tLXjlkXriCEG6QZvb-39" value="&lt;b&gt;&lt;font style=&quot;font-size: 12px;&quot;&gt;C&lt;/font&gt;&lt;/b&gt;" style="endArrow=classic;startArrow=classic;html=1;rounded=0;exitX=1;exitY=0.5;exitDx=0;exitDy=0;entryX=0.5;entryY=0.5;entryDx=0;entryDy=0;entryPerimeter=0;" parent="1" source="h80tLXjlkXriCEG6QZvb-32" target="USOqtzKKuF3D1rq9zsue-13" edge="1">
          <mxGeometry width="50" height="50" relative="1" as="geometry">
            <mxPoint x="616" y="540" as="sourcePoint" />
            <mxPoint x="666" y="490" as="targetPoint" />
          </mxGeometry>
        </mxCell>
      </root>
    </mxGraphModel>
  </diagram>
</mxfile>
